<?xml version="1.0" encoding="UTF-8" standalone="no"?>
<!-- Created with Inkscape (http://www.inkscape.org/) -->

<svg
   xmlns:dc="http://purl.org/dc/elements/1.1/"
   xmlns:cc="http://creativecommons.org/ns#"
   xmlns:rdf="http://www.w3.org/1999/02/22-rdf-syntax-ns#"
   xmlns:svg="http://www.w3.org/2000/svg"
   xmlns="http://www.w3.org/2000/svg"
   xmlns:sodipodi="http://sodipodi.sourceforge.net/DTD/sodipodi-0.dtd"
   xmlns:inkscape="http://www.inkscape.org/namespaces/inkscape"
   width="744.09448819"
   height="1052.3622047"
   id="svg2"
   version="1.1"
   inkscape:version="0.48.2 r9819"
   sodipodi:docname="1.5-buttontemplate-sheet.svg">
  <defs
     id="defs4" />
  <sodipodi:namedview
     id="base"
     pagecolor="#ffffff"
     bordercolor="#666666"
     borderopacity="1.0"
     inkscape:pageopacity="0.0"
     inkscape:pageshadow="2"
     inkscape:zoom="0.41642268"
     inkscape:cx="-217.82861"
     inkscape:cy="489.55209"
     inkscape:document-units="px"
     inkscape:current-layer="g6942"
     showgrid="true"
     inkscape:snap-global="false"
     inkscape:window-width="1280"
     inkscape:window-height="756"
     inkscape:window-x="21"
     inkscape:window-y="10"
     inkscape:window-maximized="0">
    <inkscape:grid
       type="xygrid"
       id="grid2985"
       units="cm"
       empspacing="5"
       visible="true"
       enabled="true"
       snapvisiblegridlinesonly="true"
       spacingx="0.5cm"
       spacingy="0.5cm" />
  </sodipodi:namedview>
  <metadata
     id="metadata7">
    <rdf:RDF>
      <cc:Work
         rdf:about="">
        <dc:format>image/svg+xml</dc:format>
        <dc:type
           rdf:resource="http://purl.org/dc/dcmitype/StillImage" />
        <dc:title />
      </cc:Work>
    </rdf:RDF>
  </metadata>
  <g
     inkscape:label="Layer 1"
     inkscape:groupmode="layer"
     id="layer1">
    <g
       id="g7170"
       transform="translate(-6.7922025,0)">
      <g
         id="g6942">
        <g
           id="g3334">
          <g
             transform="translate(-2.4014065,-2.4014062)"
             id="g3273">
            <path
               sodipodi:type="arc"
               style="opacity:0.85046728;fill:none;stroke:#000000;stroke-opacity:1"
               id="path2987"
               sodipodi:cx="225"
               sodipodi:cy="377.36218"
               sodipodi:rx="135"
               sodipodi:ry="135"
               d="m 360,377.36218 c 0,74.55844 -60.44156,135 -135,135 -74.55844,0 -135,-60.44156 -135,-135 0,-74.55844 60.44156,-135 135,-135 74.55844,0 135,60.44156 135,135 z"
               transform="matrix(0.6100738,0,0,0.6100738,-14.146911,-77.00201)" />
            <path
               transform="matrix(0.45664207,0,0,0.45664206,20.375228,-19.102674)"
               d="m 360,377.36218 c 0,74.55844 -60.44156,135 -135,135 -74.55844,0 -135,-60.44156 -135,-135 0,-74.55844 60.44156,-135 135,-135 74.55844,0 135,60.44156 135,135 z"
               sodipodi:ry="135"
               sodipodi:rx="135"
               sodipodi:cy="377.36218"
               sodipodi:cx="225"
               id="path3757"
               style="opacity:0.85046728;fill:none;stroke:#000000;stroke-opacity:1"
               sodipodi:type="arc" />
            <path
               transform="matrix(0.6100738,0,0,0.6100738,-14.146911,-77.00201)"
               d="m 360,377.36218 c 0,74.55844 -60.44156,135 -135,135 -74.55844,0 -135,-60.44156 -135,-135 0,-74.55844 60.44156,-135 135,-135 74.55844,0 135,60.44156 135,135 z"
               sodipodi:ry="135"
               sodipodi:rx="135"
               sodipodi:cy="377.36218"
               sodipodi:cx="225"
               id="path6926"
               style="opacity:0.85046728;fill:none;stroke:#000000;stroke-opacity:1"
               sodipodi:type="arc" />
          </g>
          <g
             transform="translate(170.49984,-2.4014062)"
             id="g3278">
            <path
               transform="matrix(0.6100738,0,0,0.6100738,-14.146911,-77.00201)"
               d="m 360,377.36218 c 0,74.55844 -60.44156,135 -135,135 -74.55844,0 -135,-60.44156 -135,-135 0,-74.55844 60.44156,-135 135,-135 74.55844,0 135,60.44156 135,135 z"
               sodipodi:ry="135"
               sodipodi:rx="135"
               sodipodi:cy="377.36218"
               sodipodi:cx="225"
               id="path3280"
               style="opacity:0.85046728;fill:none;stroke:#000000;stroke-opacity:1"
               sodipodi:type="arc" />
            <path
               sodipodi:type="arc"
               style="opacity:0.85046728;fill:none;stroke:#000000;stroke-opacity:1"
               id="path3282"
               sodipodi:cx="225"
               sodipodi:cy="377.36218"
               sodipodi:rx="135"
               sodipodi:ry="135"
               d="m 360,377.36218 c 0,74.55844 -60.44156,135 -135,135 -74.55844,0 -135,-60.44156 -135,-135 0,-74.55844 60.44156,-135 135,-135 74.55844,0 135,60.44156 135,135 z"
               transform="matrix(0.45664207,0,0,0.45664206,20.375228,-19.102674)" />
            <path
               sodipodi:type="arc"
               style="opacity:0.85046728;fill:none;stroke:#000000;stroke-opacity:1"
               id="path3284"
               sodipodi:cx="225"
               sodipodi:cy="377.36218"
               sodipodi:rx="135"
               sodipodi:ry="135"
               d="m 360,377.36218 c 0,74.55844 -60.44156,135 -135,135 -74.55844,0 -135,-60.44156 -135,-135 0,-74.55844 60.44156,-135 135,-135 74.55844,0 135,60.44156 135,135 z"
               transform="matrix(0.6100738,0,0,0.6100738,-14.146911,-77.00201)" />
          </g>
          <g
             transform="translate(343.40107,-2.4014062)"
             id="g3286">
            <path
               sodipodi:type="arc"
               style="opacity:0.85046728;fill:none;stroke:#000000;stroke-opacity:1"
               id="path3288"
               sodipodi:cx="225"
               sodipodi:cy="377.36218"
               sodipodi:rx="135"
               sodipodi:ry="135"
               d="m 360,377.36218 c 0,74.55844 -60.44156,135 -135,135 -74.55844,0 -135,-60.44156 -135,-135 0,-74.55844 60.44156,-135 135,-135 74.55844,0 135,60.44156 135,135 z"
               transform="matrix(0.6100738,0,0,0.6100738,-14.146911,-77.00201)" />
            <path
               transform="matrix(0.45664207,0,0,0.45664206,20.375228,-19.102674)"
               d="m 360,377.36218 c 0,74.55844 -60.44156,135 -135,135 -74.55844,0 -135,-60.44156 -135,-135 0,-74.55844 60.44156,-135 135,-135 74.55844,0 135,60.44156 135,135 z"
               sodipodi:ry="135"
               sodipodi:rx="135"
               sodipodi:cy="377.36218"
               sodipodi:cx="225"
               id="path3290"
               style="opacity:0.85046728;fill:none;stroke:#000000;stroke-opacity:1"
               sodipodi:type="arc" />
            <path
               transform="matrix(0.6100738,0,0,0.6100738,-14.146911,-77.00201)"
               d="m 360,377.36218 c 0,74.55844 -60.44156,135 -135,135 -74.55844,0 -135,-60.44156 -135,-135 0,-74.55844 60.44156,-135 135,-135 74.55844,0 135,60.44156 135,135 z"
               sodipodi:ry="135"
               sodipodi:rx="135"
               sodipodi:cy="377.36218"
               sodipodi:cx="225"
               id="path3292"
               style="opacity:0.85046728;fill:none;stroke:#000000;stroke-opacity:1"
               sodipodi:type="arc" />
          </g>
          <g
             transform="translate(516.30234,-2.4014062)"
             id="g3294">
            <path
               transform="matrix(0.6100738,0,0,0.6100738,-14.146911,-77.00201)"
               d="m 360,377.36218 c 0,74.55844 -60.44156,135 -135,135 -74.55844,0 -135,-60.44156 -135,-135 0,-74.55844 60.44156,-135 135,-135 74.55844,0 135,60.44156 135,135 z"
               sodipodi:ry="135"
               sodipodi:rx="135"
               sodipodi:cy="377.36218"
               sodipodi:cx="225"
               id="path3296"
               style="opacity:0.85046728;fill:none;stroke:#000000;stroke-opacity:1"
               sodipodi:type="arc" />
            <path
               sodipodi:type="arc"
               style="opacity:0.85046728;fill:none;stroke:#000000;stroke-opacity:1"
               id="path3298"
               sodipodi:cx="225"
               sodipodi:cy="377.36218"
               sodipodi:rx="135"
               sodipodi:ry="135"
               d="m 360,377.36218 c 0,74.55844 -60.44156,135 -135,135 -74.55844,0 -135,-60.44156 -135,-135 0,-74.55844 60.44156,-135 135,-135 74.55844,0 135,60.44156 135,135 z"
               transform="matrix(0.45664207,0,0,0.45664206,20.375228,-19.102674)" />
            <path
               sodipodi:type="arc"
               style="opacity:0.85046728;fill:none;stroke:#000000;stroke-opacity:1"
               id="path3300"
               sodipodi:cx="225"
               sodipodi:cy="377.36218"
               sodipodi:rx="135"
               sodipodi:ry="135"
               d="m 360,377.36218 c 0,74.55844 -60.44156,135 -135,135 -74.55844,0 -135,-60.44156 -135,-135 0,-74.55844 60.44156,-135 135,-135 74.55844,0 135,60.44156 135,135 z"
               transform="matrix(0.6100738,0,0,0.6100738,-14.146911,-77.00201)" />
          </g>
        </g>
        <g
           id="g3352"
           transform="translate(0,756.44295)">
          <g
             id="g3354"
             transform="translate(-2.4014065,-2.4014062)">
            <path
               transform="matrix(0.6100738,0,0,0.6100738,-14.146911,-77.00201)"
               d="m 360,377.36218 c 0,74.55844 -60.44156,135 -135,135 -74.55844,0 -135,-60.44156 -135,-135 0,-74.55844 60.44156,-135 135,-135 74.55844,0 135,60.44156 135,135 z"
               sodipodi:ry="135"
               sodipodi:rx="135"
               sodipodi:cy="377.36218"
               sodipodi:cx="225"
               id="path3356"
               style="opacity:0.85046728;fill:none;stroke:#000000;stroke-opacity:1"
               sodipodi:type="arc" />
            <path
               sodipodi:type="arc"
               style="opacity:0.85046728;fill:none;stroke:#000000;stroke-opacity:1"
               id="path3358"
               sodipodi:cx="225"
               sodipodi:cy="377.36218"
               sodipodi:rx="135"
               sodipodi:ry="135"
               d="m 360,377.36218 c 0,74.55844 -60.44156,135 -135,135 -74.55844,0 -135,-60.44156 -135,-135 0,-74.55844 60.44156,-135 135,-135 74.55844,0 135,60.44156 135,135 z"
               transform="matrix(0.45664207,0,0,0.45664206,20.375228,-19.102674)" />
            <path
               sodipodi:type="arc"
               style="opacity:0.85046728;fill:none;stroke:#000000;stroke-opacity:1"
               id="path3360"
               sodipodi:cx="225"
               sodipodi:cy="377.36218"
               sodipodi:rx="135"
               sodipodi:ry="135"
               d="m 360,377.36218 c 0,74.55844 -60.44156,135 -135,135 -74.55844,0 -135,-60.44156 -135,-135 0,-74.55844 60.44156,-135 135,-135 74.55844,0 135,60.44156 135,135 z"
               transform="matrix(0.6100738,0,0,0.6100738,-14.146911,-77.00201)" />
          </g>
          <g
             id="g3362"
             transform="translate(170.49984,-2.4014062)">
            <path
               sodipodi:type="arc"
               style="opacity:0.85046728;fill:none;stroke:#000000;stroke-opacity:1"
               id="path3364"
               sodipodi:cx="225"
               sodipodi:cy="377.36218"
               sodipodi:rx="135"
               sodipodi:ry="135"
               d="m 360,377.36218 c 0,74.55844 -60.44156,135 -135,135 -74.55844,0 -135,-60.44156 -135,-135 0,-74.55844 60.44156,-135 135,-135 74.55844,0 135,60.44156 135,135 z"
               transform="matrix(0.6100738,0,0,0.6100738,-14.146911,-77.00201)" />
            <path
               transform="matrix(0.45664207,0,0,0.45664206,20.375228,-19.102674)"
               d="m 360,377.36218 c 0,74.55844 -60.44156,135 -135,135 -74.55844,0 -135,-60.44156 -135,-135 0,-74.55844 60.44156,-135 135,-135 74.55844,0 135,60.44156 135,135 z"
               sodipodi:ry="135"
               sodipodi:rx="135"
               sodipodi:cy="377.36218"
               sodipodi:cx="225"
               id="path3366"
               style="opacity:0.85046728;fill:none;stroke:#000000;stroke-opacity:1"
               sodipodi:type="arc" />
            <path
               transform="matrix(0.6100738,0,0,0.6100738,-14.146911,-77.00201)"
               d="m 360,377.36218 c 0,74.55844 -60.44156,135 -135,135 -74.55844,0 -135,-60.44156 -135,-135 0,-74.55844 60.44156,-135 135,-135 74.55844,0 135,60.44156 135,135 z"
               sodipodi:ry="135"
               sodipodi:rx="135"
               sodipodi:cy="377.36218"
               sodipodi:cx="225"
               id="path3368"
               style="opacity:0.85046728;fill:none;stroke:#000000;stroke-opacity:1"
               sodipodi:type="arc" />
          </g>
          <g
             id="g3370"
             transform="translate(343.40107,-2.4014062)">
            <path
               transform="matrix(0.6100738,0,0,0.6100738,-14.146911,-77.00201)"
               d="m 360,377.36218 c 0,74.55844 -60.44156,135 -135,135 -74.55844,0 -135,-60.44156 -135,-135 0,-74.55844 60.44156,-135 135,-135 74.55844,0 135,60.44156 135,135 z"
               sodipodi:ry="135"
               sodipodi:rx="135"
               sodipodi:cy="377.36218"
               sodipodi:cx="225"
               id="path3372"
               style="opacity:0.85046728;fill:none;stroke:#000000;stroke-opacity:1"
               sodipodi:type="arc" />
            <path
               sodipodi:type="arc"
               style="opacity:0.85046728;fill:none;stroke:#000000;stroke-opacity:1"
               id="path3374"
               sodipodi:cx="225"
               sodipodi:cy="377.36218"
               sodipodi:rx="135"
               sodipodi:ry="135"
               d="m 360,377.36218 c 0,74.55844 -60.44156,135 -135,135 -74.55844,0 -135,-60.44156 -135,-135 0,-74.55844 60.44156,-135 135,-135 74.55844,0 135,60.44156 135,135 z"
               transform="matrix(0.45664207,0,0,0.45664206,20.375228,-19.102674)" />
            <path
               sodipodi:type="arc"
               style="opacity:0.85046728;fill:none;stroke:#000000;stroke-opacity:1"
               id="path3376"
               sodipodi:cx="225"
               sodipodi:cy="377.36218"
               sodipodi:rx="135"
               sodipodi:ry="135"
               d="m 360,377.36218 c 0,74.55844 -60.44156,135 -135,135 -74.55844,0 -135,-60.44156 -135,-135 0,-74.55844 60.44156,-135 135,-135 74.55844,0 135,60.44156 135,135 z"
               transform="matrix(0.6100738,0,0,0.6100738,-14.146911,-77.00201)" />
          </g>
          <g
             id="g3378"
             transform="translate(516.30234,-2.4014062)">
            <path
               sodipodi:type="arc"
               style="opacity:0.85046728;fill:none;stroke:#000000;stroke-opacity:1"
               id="path3380"
               sodipodi:cx="225"
               sodipodi:cy="377.36218"
               sodipodi:rx="135"
               sodipodi:ry="135"
               d="m 360,377.36218 c 0,74.55844 -60.44156,135 -135,135 -74.55844,0 -135,-60.44156 -135,-135 0,-74.55844 60.44156,-135 135,-135 74.55844,0 135,60.44156 135,135 z"
               transform="matrix(0.6100738,0,0,0.6100738,-14.146911,-77.00201)" />
            <path
               transform="matrix(0.45664207,0,0,0.45664206,20.375228,-19.102674)"
               d="m 360,377.36218 c 0,74.55844 -60.44156,135 -135,135 -74.55844,0 -135,-60.44156 -135,-135 0,-74.55844 60.44156,-135 135,-135 74.55844,0 135,60.44156 135,135 z"
               sodipodi:ry="135"
               sodipodi:rx="135"
               sodipodi:cy="377.36218"
               sodipodi:cx="225"
               id="path3382"
               style="opacity:0.85046728;fill:none;stroke:#000000;stroke-opacity:1"
               sodipodi:type="arc" />
            <path
               transform="matrix(0.6100738,0,0,0.6100738,-14.146911,-77.00201)"
               d="m 360,377.36218 c 0,74.55844 -60.44156,135 -135,135 -74.55844,0 -135,-60.44156 -135,-135 0,-74.55844 60.44156,-135 135,-135 74.55844,0 135,60.44156 135,135 z"
               sodipodi:ry="135"
               sodipodi:rx="135"
               sodipodi:cy="377.36218"
               sodipodi:cx="225"
               id="path3384"
               style="opacity:0.85046728;fill:none;stroke:#000000;stroke-opacity:1"
               sodipodi:type="arc" />
          </g>
        </g>
        <g
           id="g3386"
           transform="translate(0,567.33221)">
          <g
             transform="translate(-2.4014065,-2.4014062)"
             id="g3388">
            <path
               sodipodi:type="arc"
               style="opacity:0.85046728;fill:none;stroke:#000000;stroke-opacity:1"
               id="path3390"
               sodipodi:cx="225"
               sodipodi:cy="377.36218"
               sodipodi:rx="135"
               sodipodi:ry="135"
               d="m 360,377.36218 c 0,74.55844 -60.44156,135 -135,135 -74.55844,0 -135,-60.44156 -135,-135 0,-74.55844 60.44156,-135 135,-135 74.55844,0 135,60.44156 135,135 z"
               transform="matrix(0.6100738,0,0,0.6100738,-14.146911,-77.00201)" />
            <path
               transform="matrix(0.45664207,0,0,0.45664206,20.375228,-19.102674)"
               d="m 360,377.36218 c 0,74.55844 -60.44156,135 -135,135 -74.55844,0 -135,-60.44156 -135,-135 0,-74.55844 60.44156,-135 135,-135 74.55844,0 135,60.44156 135,135 z"
               sodipodi:ry="135"
               sodipodi:rx="135"
               sodipodi:cy="377.36218"
               sodipodi:cx="225"
               id="path3392"
               style="opacity:0.85046728;fill:none;stroke:#000000;stroke-opacity:1"
               sodipodi:type="arc" />
            <path
               transform="matrix(0.6100738,0,0,0.6100738,-14.146911,-77.00201)"
               d="m 360,377.36218 c 0,74.55844 -60.44156,135 -135,135 -74.55844,0 -135,-60.44156 -135,-135 0,-74.55844 60.44156,-135 135,-135 74.55844,0 135,60.44156 135,135 z"
               sodipodi:ry="135"
               sodipodi:rx="135"
               sodipodi:cy="377.36218"
               sodipodi:cx="225"
               id="path3394"
               style="opacity:0.85046728;fill:none;stroke:#000000;stroke-opacity:1"
               sodipodi:type="arc" />
          </g>
          <g
             transform="translate(170.49984,-2.4014062)"
             id="g3396">
            <path
               transform="matrix(0.6100738,0,0,0.6100738,-14.146911,-77.00201)"
               d="m 360,377.36218 c 0,74.55844 -60.44156,135 -135,135 -74.55844,0 -135,-60.44156 -135,-135 0,-74.55844 60.44156,-135 135,-135 74.55844,0 135,60.44156 135,135 z"
               sodipodi:ry="135"
               sodipodi:rx="135"
               sodipodi:cy="377.36218"
               sodipodi:cx="225"
               id="path3398"
               style="opacity:0.85046728;fill:none;stroke:#000000;stroke-opacity:1"
               sodipodi:type="arc" />
            <path
               sodipodi:type="arc"
               style="opacity:0.85046728;fill:none;stroke:#000000;stroke-opacity:1"
               id="path3400"
               sodipodi:cx="225"
               sodipodi:cy="377.36218"
               sodipodi:rx="135"
               sodipodi:ry="135"
               d="m 360,377.36218 c 0,74.55844 -60.44156,135 -135,135 -74.55844,0 -135,-60.44156 -135,-135 0,-74.55844 60.44156,-135 135,-135 74.55844,0 135,60.44156 135,135 z"
               transform="matrix(0.45664207,0,0,0.45664206,20.375228,-19.102674)" />
            <path
               sodipodi:type="arc"
               style="opacity:0.85046728;fill:none;stroke:#000000;stroke-opacity:1"
               id="path3402"
               sodipodi:cx="225"
               sodipodi:cy="377.36218"
               sodipodi:rx="135"
               sodipodi:ry="135"
               d="m 360,377.36218 c 0,74.55844 -60.44156,135 -135,135 -74.55844,0 -135,-60.44156 -135,-135 0,-74.55844 60.44156,-135 135,-135 74.55844,0 135,60.44156 135,135 z"
               transform="matrix(0.6100738,0,0,0.6100738,-14.146911,-77.00201)" />
          </g>
          <g
             transform="translate(343.40107,-2.4014062)"
             id="g3404">
            <path
               sodipodi:type="arc"
               style="opacity:0.85046728;fill:none;stroke:#000000;stroke-opacity:1"
               id="path3406"
               sodipodi:cx="225"
               sodipodi:cy="377.36218"
               sodipodi:rx="135"
               sodipodi:ry="135"
               d="m 360,377.36218 c 0,74.55844 -60.44156,135 -135,135 -74.55844,0 -135,-60.44156 -135,-135 0,-74.55844 60.44156,-135 135,-135 74.55844,0 135,60.44156 135,135 z"
               transform="matrix(0.6100738,0,0,0.6100738,-14.146911,-77.00201)" />
            <path
               transform="matrix(0.45664207,0,0,0.45664206,20.375228,-19.102674)"
               d="m 360,377.36218 c 0,74.55844 -60.44156,135 -135,135 -74.55844,0 -135,-60.44156 -135,-135 0,-74.55844 60.44156,-135 135,-135 74.55844,0 135,60.44156 135,135 z"
               sodipodi:ry="135"
               sodipodi:rx="135"
               sodipodi:cy="377.36218"
               sodipodi:cx="225"
               id="path3408"
               style="opacity:0.85046728;fill:none;stroke:#000000;stroke-opacity:1"
               sodipodi:type="arc" />
            <path
               transform="matrix(0.6100738,0,0,0.6100738,-14.146911,-77.00201)"
               d="m 360,377.36218 c 0,74.55844 -60.44156,135 -135,135 -74.55844,0 -135,-60.44156 -135,-135 0,-74.55844 60.44156,-135 135,-135 74.55844,0 135,60.44156 135,135 z"
               sodipodi:ry="135"
               sodipodi:rx="135"
               sodipodi:cy="377.36218"
               sodipodi:cx="225"
               id="path3410"
               style="opacity:0.85046728;fill:none;stroke:#000000;stroke-opacity:1"
               sodipodi:type="arc" />
          </g>
          <g
             transform="translate(516.30234,-2.4014062)"
             id="g3412">
            <path
               transform="matrix(0.6100738,0,0,0.6100738,-14.146911,-77.00201)"
               d="m 360,377.36218 c 0,74.55844 -60.44156,135 -135,135 -74.55844,0 -135,-60.44156 -135,-135 0,-74.55844 60.44156,-135 135,-135 74.55844,0 135,60.44156 135,135 z"
               sodipodi:ry="135"
               sodipodi:rx="135"
               sodipodi:cy="377.36218"
               sodipodi:cx="225"
               id="path3414"
               style="opacity:0.85046728;fill:none;stroke:#000000;stroke-opacity:1"
               sodipodi:type="arc" />
            <path
               sodipodi:type="arc"
               style="opacity:0.85046728;fill:none;stroke:#000000;stroke-opacity:1"
               id="path3416"
               sodipodi:cx="225"
               sodipodi:cy="377.36218"
               sodipodi:rx="135"
               sodipodi:ry="135"
               d="m 360,377.36218 c 0,74.55844 -60.44156,135 -135,135 -74.55844,0 -135,-60.44156 -135,-135 0,-74.55844 60.44156,-135 135,-135 74.55844,0 135,60.44156 135,135 z"
               transform="matrix(0.45664207,0,0,0.45664206,20.375228,-19.102674)" />
            <path
               sodipodi:type="arc"
               style="opacity:0.85046728;fill:none;stroke:#000000;stroke-opacity:1"
               id="path3418"
               sodipodi:cx="225"
               sodipodi:cy="377.36218"
               sodipodi:rx="135"
               sodipodi:ry="135"
               d="m 360,377.36218 c 0,74.55844 -60.44156,135 -135,135 -74.55844,0 -135,-60.44156 -135,-135 0,-74.55844 60.44156,-135 135,-135 74.55844,0 135,60.44156 135,135 z"
               transform="matrix(0.6100738,0,0,0.6100738,-14.146911,-77.00201)" />
          </g>
        </g>
        <g
           id="g3420"
           transform="translate(0,378.22149)">
          <g
             id="g3422"
             transform="translate(-2.4014065,-2.4014062)">
            <path
               transform="matrix(0.6100738,0,0,0.6100738,-14.146911,-77.00201)"
               d="m 360,377.36218 c 0,74.55844 -60.44156,135 -135,135 -74.55844,0 -135,-60.44156 -135,-135 0,-74.55844 60.44156,-135 135,-135 74.55844,0 135,60.44156 135,135 z"
               sodipodi:ry="135"
               sodipodi:rx="135"
               sodipodi:cy="377.36218"
               sodipodi:cx="225"
               id="path3424"
               style="opacity:0.85046728;fill:none;stroke:#000000;stroke-opacity:1"
               sodipodi:type="arc" />
            <path
               sodipodi:type="arc"
               style="opacity:0.85046728;fill:none;stroke:#000000;stroke-opacity:1"
               id="path3426"
               sodipodi:cx="225"
               sodipodi:cy="377.36218"
               sodipodi:rx="135"
               sodipodi:ry="135"
               d="m 360,377.36218 c 0,74.55844 -60.44156,135 -135,135 -74.55844,0 -135,-60.44156 -135,-135 0,-74.55844 60.44156,-135 135,-135 74.55844,0 135,60.44156 135,135 z"
               transform="matrix(0.45664207,0,0,0.45664206,20.375228,-19.102674)" />
            <path
               sodipodi:type="arc"
               style="opacity:0.85046728;fill:none;stroke:#000000;stroke-opacity:1"
               id="path3428"
               sodipodi:cx="225"
               sodipodi:cy="377.36218"
               sodipodi:rx="135"
               sodipodi:ry="135"
               d="m 360,377.36218 c 0,74.55844 -60.44156,135 -135,135 -74.55844,0 -135,-60.44156 -135,-135 0,-74.55844 60.44156,-135 135,-135 74.55844,0 135,60.44156 135,135 z"
               transform="matrix(0.6100738,0,0,0.6100738,-14.146911,-77.00201)" />
          </g>
          <g
             id="g3430"
             transform="translate(170.49984,-2.4014062)">
            <path
               sodipodi:type="arc"
               style="opacity:0.85046728;fill:none;stroke:#000000;stroke-opacity:1"
               id="path3432"
               sodipodi:cx="225"
               sodipodi:cy="377.36218"
               sodipodi:rx="135"
               sodipodi:ry="135"
               d="m 360,377.36218 c 0,74.55844 -60.44156,135 -135,135 -74.55844,0 -135,-60.44156 -135,-135 0,-74.55844 60.44156,-135 135,-135 74.55844,0 135,60.44156 135,135 z"
               transform="matrix(0.6100738,0,0,0.6100738,-14.146911,-77.00201)" />
            <path
               transform="matrix(0.45664207,0,0,0.45664206,20.375228,-19.102674)"
               d="m 360,377.36218 c 0,74.55844 -60.44156,135 -135,135 -74.55844,0 -135,-60.44156 -135,-135 0,-74.55844 60.44156,-135 135,-135 74.55844,0 135,60.44156 135,135 z"
               sodipodi:ry="135"
               sodipodi:rx="135"
               sodipodi:cy="377.36218"
               sodipodi:cx="225"
               id="path3434"
               style="opacity:0.85046728;fill:none;stroke:#000000;stroke-opacity:1"
               sodipodi:type="arc" />
            <path
               transform="matrix(0.6100738,0,0,0.6100738,-14.146911,-77.00201)"
               d="m 360,377.36218 c 0,74.55844 -60.44156,135 -135,135 -74.55844,0 -135,-60.44156 -135,-135 0,-74.55844 60.44156,-135 135,-135 74.55844,0 135,60.44156 135,135 z"
               sodipodi:ry="135"
               sodipodi:rx="135"
               sodipodi:cy="377.36218"
               sodipodi:cx="225"
               id="path3436"
               style="opacity:0.85046728;fill:none;stroke:#000000;stroke-opacity:1"
               sodipodi:type="arc" />
          </g>
          <g
             id="g3438"
             transform="translate(343.40107,-2.4014062)">
            <path
               transform="matrix(0.6100738,0,0,0.6100738,-14.146911,-77.00201)"
               d="m 360,377.36218 c 0,74.55844 -60.44156,135 -135,135 -74.55844,0 -135,-60.44156 -135,-135 0,-74.55844 60.44156,-135 135,-135 74.55844,0 135,60.44156 135,135 z"
               sodipodi:ry="135"
               sodipodi:rx="135"
               sodipodi:cy="377.36218"
               sodipodi:cx="225"
               id="path3440"
               style="opacity:0.85046728;fill:none;stroke:#000000;stroke-opacity:1"
               sodipodi:type="arc" />
            <path
               sodipodi:type="arc"
               style="opacity:0.85046728;fill:none;stroke:#000000;stroke-opacity:1"
               id="path3442"
               sodipodi:cx="225"
               sodipodi:cy="377.36218"
               sodipodi:rx="135"
               sodipodi:ry="135"
               d="m 360,377.36218 c 0,74.55844 -60.44156,135 -135,135 -74.55844,0 -135,-60.44156 -135,-135 0,-74.55844 60.44156,-135 135,-135 74.55844,0 135,60.44156 135,135 z"
               transform="matrix(0.45664207,0,0,0.45664206,20.375228,-19.102674)" />
            <path
               sodipodi:type="arc"
               style="opacity:0.85046728;fill:none;stroke:#000000;stroke-opacity:1"
               id="path3444"
               sodipodi:cx="225"
               sodipodi:cy="377.36218"
               sodipodi:rx="135"
               sodipodi:ry="135"
               d="m 360,377.36218 c 0,74.55844 -60.44156,135 -135,135 -74.55844,0 -135,-60.44156 -135,-135 0,-74.55844 60.44156,-135 135,-135 74.55844,0 135,60.44156 135,135 z"
               transform="matrix(0.6100738,0,0,0.6100738,-14.146911,-77.00201)" />
          </g>
          <g
             id="g3446"
             transform="translate(516.30234,-2.4014062)">
            <path
               sodipodi:type="arc"
               style="opacity:0.85046728;fill:none;stroke:#000000;stroke-opacity:1"
               id="path3448"
               sodipodi:cx="225"
               sodipodi:cy="377.36218"
               sodipodi:rx="135"
               sodipodi:ry="135"
               d="m 360,377.36218 c 0,74.55844 -60.44156,135 -135,135 -74.55844,0 -135,-60.44156 -135,-135 0,-74.55844 60.44156,-135 135,-135 74.55844,0 135,60.44156 135,135 z"
               transform="matrix(0.6100738,0,0,0.6100738,-14.146911,-77.00201)" />
            <path
               transform="matrix(0.45664207,0,0,0.45664206,20.375228,-19.102674)"
               d="m 360,377.36218 c 0,74.55844 -60.44156,135 -135,135 -74.55844,0 -135,-60.44156 -135,-135 0,-74.55844 60.44156,-135 135,-135 74.55844,0 135,60.44156 135,135 z"
               sodipodi:ry="135"
               sodipodi:rx="135"
               sodipodi:cy="377.36218"
               sodipodi:cx="225"
               id="path3450"
               style="opacity:0.85046728;fill:none;stroke:#000000;stroke-opacity:1"
               sodipodi:type="arc" />
            <path
               transform="matrix(0.6100738,0,0,0.6100738,-14.146911,-77.00201)"
               d="m 360,377.36218 c 0,74.55844 -60.44156,135 -135,135 -74.55844,0 -135,-60.44156 -135,-135 0,-74.55844 60.44156,-135 135,-135 74.55844,0 135,60.44156 135,135 z"
               sodipodi:ry="135"
               sodipodi:rx="135"
               sodipodi:cy="377.36218"
               sodipodi:cx="225"
               id="path3452"
               style="opacity:0.85046728;fill:none;stroke:#000000;stroke-opacity:1"
               sodipodi:type="arc" />
          </g>
        </g>
        <g
           id="g3454"
           transform="translate(0,189.11073)">
          <g
             transform="translate(-2.4014065,-2.4014062)"
             id="g3456">
            <path
               sodipodi:type="arc"
               style="opacity:0.85046728;fill:none;stroke:#000000;stroke-opacity:1"
               id="path3458"
               sodipodi:cx="225"
               sodipodi:cy="377.36218"
               sodipodi:rx="135"
               sodipodi:ry="135"
               d="m 360,377.36218 c 0,74.55844 -60.44156,135 -135,135 -74.55844,0 -135,-60.44156 -135,-135 0,-74.55844 60.44156,-135 135,-135 74.55844,0 135,60.44156 135,135 z"
               transform="matrix(0.6100738,0,0,0.6100738,-14.146911,-77.00201)" />
            <path
               transform="matrix(0.45664207,0,0,0.45664206,20.375228,-19.102674)"
               d="m 360,377.36218 c 0,74.55844 -60.44156,135 -135,135 -74.55844,0 -135,-60.44156 -135,-135 0,-74.55844 60.44156,-135 135,-135 74.55844,0 135,60.44156 135,135 z"
               sodipodi:ry="135"
               sodipodi:rx="135"
               sodipodi:cy="377.36218"
               sodipodi:cx="225"
               id="path3460"
               style="opacity:0.85046728;fill:none;stroke:#000000;stroke-opacity:1"
               sodipodi:type="arc" />
            <path
               transform="matrix(0.6100738,0,0,0.6100738,-14.146911,-77.00201)"
               d="m 360,377.36218 c 0,74.55844 -60.44156,135 -135,135 -74.55844,0 -135,-60.44156 -135,-135 0,-74.55844 60.44156,-135 135,-135 74.55844,0 135,60.44156 135,135 z"
               sodipodi:ry="135"
               sodipodi:rx="135"
               sodipodi:cy="377.36218"
               sodipodi:cx="225"
               id="path3462"
               style="opacity:0.85046728;fill:none;stroke:#000000;stroke-opacity:1"
               sodipodi:type="arc" />
          </g>
          <g
             transform="translate(170.49984,-2.4014062)"
             id="g3464">
            <path
               transform="matrix(0.6100738,0,0,0.6100738,-14.146911,-77.00201)"
               d="m 360,377.36218 c 0,74.55844 -60.44156,135 -135,135 -74.55844,0 -135,-60.44156 -135,-135 0,-74.55844 60.44156,-135 135,-135 74.55844,0 135,60.44156 135,135 z"
               sodipodi:ry="135"
               sodipodi:rx="135"
               sodipodi:cy="377.36218"
               sodipodi:cx="225"
               id="path3466"
               style="opacity:0.85046728;fill:none;stroke:#000000;stroke-opacity:1"
               sodipodi:type="arc" />
            <path
               sodipodi:type="arc"
               style="opacity:0.85046728;fill:none;stroke:#000000;stroke-opacity:1"
               id="path3468"
               sodipodi:cx="225"
               sodipodi:cy="377.36218"
               sodipodi:rx="135"
               sodipodi:ry="135"
               d="m 360,377.36218 c 0,74.55844 -60.44156,135 -135,135 -74.55844,0 -135,-60.44156 -135,-135 0,-74.55844 60.44156,-135 135,-135 74.55844,0 135,60.44156 135,135 z"
               transform="matrix(0.45664207,0,0,0.45664206,20.375228,-19.102674)" />
            <path
               sodipodi:type="arc"
               style="opacity:0.85046728;fill:none;stroke:#000000;stroke-opacity:1"
               id="path3470"
               sodipodi:cx="225"
               sodipodi:cy="377.36218"
               sodipodi:rx="135"
               sodipodi:ry="135"
               d="m 360,377.36218 c 0,74.55844 -60.44156,135 -135,135 -74.55844,0 -135,-60.44156 -135,-135 0,-74.55844 60.44156,-135 135,-135 74.55844,0 135,60.44156 135,135 z"
               transform="matrix(0.6100738,0,0,0.6100738,-14.146911,-77.00201)" />
          </g>
          <g
             transform="translate(343.40107,-2.4014062)"
             id="g3472">
            <path
               sodipodi:type="arc"
               style="opacity:0.85046728;fill:none;stroke:#000000;stroke-opacity:1"
               id="path3474"
               sodipodi:cx="225"
               sodipodi:cy="377.36218"
               sodipodi:rx="135"
               sodipodi:ry="135"
               d="m 360,377.36218 c 0,74.55844 -60.44156,135 -135,135 -74.55844,0 -135,-60.44156 -135,-135 0,-74.55844 60.44156,-135 135,-135 74.55844,0 135,60.44156 135,135 z"
               transform="matrix(0.6100738,0,0,0.6100738,-14.146911,-77.00201)" />
            <path
               transform="matrix(0.45664207,0,0,0.45664206,20.375228,-19.102674)"
               d="m 360,377.36218 c 0,74.55844 -60.44156,135 -135,135 -74.55844,0 -135,-60.44156 -135,-135 0,-74.55844 60.44156,-135 135,-135 74.55844,0 135,60.44156 135,135 z"
               sodipodi:ry="135"
               sodipodi:rx="135"
               sodipodi:cy="377.36218"
               sodipodi:cx="225"
               id="path3476"
               style="opacity:0.85046728;fill:none;stroke:#000000;stroke-opacity:1"
               sodipodi:type="arc" />
            <path
               transform="matrix(0.6100738,0,0,0.6100738,-14.146911,-77.00201)"
               d="m 360,377.36218 c 0,74.55844 -60.44156,135 -135,135 -74.55844,0 -135,-60.44156 -135,-135 0,-74.55844 60.44156,-135 135,-135 74.55844,0 135,60.44156 135,135 z"
               sodipodi:ry="135"
               sodipodi:rx="135"
               sodipodi:cy="377.36218"
               sodipodi:cx="225"
               id="path3478"
               style="opacity:0.85046728;fill:none;stroke:#000000;stroke-opacity:1"
               sodipodi:type="arc" />
          </g>
          <g
             transform="translate(516.30234,-2.4014062)"
             id="g3480">
            <path
               transform="matrix(0.6100738,0,0,0.6100738,-14.146911,-77.00201)"
               d="m 360,377.36218 c 0,74.55844 -60.44156,135 -135,135 -74.55844,0 -135,-60.44156 -135,-135 0,-74.55844 60.44156,-135 135,-135 74.55844,0 135,60.44156 135,135 z"
               sodipodi:ry="135"
               sodipodi:rx="135"
               sodipodi:cy="377.36218"
               sodipodi:cx="225"
               id="path3482"
               style="opacity:0.85046728;fill:none;stroke:#000000;stroke-opacity:1"
               sodipodi:type="arc" />
            <path
               sodipodi:type="arc"
               style="opacity:0.85046728;fill:none;stroke:#000000;stroke-opacity:1"
               id="path3484"
               sodipodi:cx="225"
               sodipodi:cy="377.36218"
               sodipodi:rx="135"
               sodipodi:ry="135"
               d="m 360,377.36218 c 0,74.55844 -60.44156,135 -135,135 -74.55844,0 -135,-60.44156 -135,-135 0,-74.55844 60.44156,-135 135,-135 74.55844,0 135,60.44156 135,135 z"
               transform="matrix(0.45664207,0,0,0.45664206,20.375228,-19.102674)" />
            <path
               sodipodi:type="arc"
               style="opacity:0.85046728;fill:none;stroke:#000000;stroke-opacity:1"
               id="path3486"
               sodipodi:cx="225"
               sodipodi:cy="377.36218"
               sodipodi:rx="135"
               sodipodi:ry="135"
               d="m 360,377.36218 c 0,74.55844 -60.44156,135 -135,135 -74.55844,0 -135,-60.44156 -135,-135 0,-74.55844 60.44156,-135 135,-135 74.55844,0 135,60.44156 135,135 z"
               transform="matrix(0.6100738,0,0,0.6100738,-14.146911,-77.00201)" />
          </g>
        </g>
      </g>
    </g>
  </g>
</svg>
